<svg width="26" height="25" viewBox="0 0 26 25" fill="none" xmlns="http://www.w3.org/2000/svg">
<path d="M3.94143 5.42582L0 1.6486L1.71974 0L5.65996 3.77839H24.1845C24.374 3.77837 24.5608 3.82081 24.7301 3.90231C24.8994 3.98381 25.0464 4.10212 25.1596 4.2478C25.2727 4.39347 25.3487 4.56247 25.3816 4.74132C25.4144 4.92016 25.4032 5.1039 25.3489 5.27786L22.432 14.5986C22.357 14.8387 22.2031 15.0492 21.9934 15.1988C21.7836 15.3485 21.5291 15.4293 21.2677 15.4293H6.37216V17.7595H19.7412V20.0896H5.15679C4.83446 20.0896 4.52533 19.9669 4.2974 19.7484C4.06948 19.5299 3.94143 19.2336 3.94143 18.9246V5.42582ZM6.37216 6.10857V13.0991H20.3634L22.5511 6.10857H6.37216ZM5.76448 24.75C5.28097 24.75 4.81727 24.5659 4.47539 24.2381C4.1335 23.9104 3.94143 23.4659 3.94143 23.0024C3.94143 22.5389 4.1335 22.0943 4.47539 21.7666C4.81727 21.4389 5.28097 21.2547 5.76448 21.2547C6.24798 21.2547 6.71168 21.4389 7.05357 21.7666C7.39545 22.0943 7.58752 22.5389 7.58752 23.0024C7.58752 23.4659 7.39545 23.9104 7.05357 24.2381C6.71168 24.5659 6.24798 24.75 5.76448 24.75ZM20.3489 24.75C19.8654 24.75 19.4017 24.5659 19.0598 24.2381C18.7179 23.9104 18.5258 23.4659 18.5258 23.0024C18.5258 22.5389 18.7179 22.0943 19.0598 21.7666C19.4017 21.4389 19.8654 21.2547 20.3489 21.2547C20.8324 21.2547 21.2961 21.4389 21.6379 21.7666C21.9798 22.0943 22.1719 22.5389 22.1719 23.0024C22.1719 23.4659 21.9798 23.9104 21.6379 24.2381C21.2961 24.5659 20.8324 24.75 20.3489 24.75Z" fill="white"/>
</svg>
